<svg xmlns="http://www.w3.org/2000/svg" width="789" height="924" viewBox="0 0 789 924" fill="none">
  <path fill="#0B0D10" fill-rule="evenodd" clip-rule="evenodd" d="
    M 391 923 L 394 922 L 395 921.4 L 396 921.1 L 397 920.3 L 403 917 L 405 915.6 L 408 914 L 412 911.5 L 413 911.1 L 417 908.6 L 420 907 L 424 904.5 L 425 904 L 429 901.5 L 432 900 L 436 897.5 L 437 897.1 L 441 894.5 L 442 894.1 L 448 890.4 L 449 890 L 451 888.7 L 454 887 L 460 883.4 L 461 883 L 472 876.4 L 485 869 L 506 856.5 L 515.8 851 L 530 842.6 L 550 831 L 559 825.6 L 565 822.2 L 569 819.7 L 577 815.2 L 581 812.7 L 582 812.2 L 586 809.7 L 589 808.1 L 601 801.2 L 603.4 799 L 605 797.3 L 606 795.9 L 607.2 794 L 607.5 793 L 608.2 792 L 609.1 789 L 609.5 786 L 609.6 735 L 609.5 639 L 609.6 638 L 610.2 636 L 610.5 634 L 611.5 631 L 612.2 630 L 612.6 629 L 614.8 626 L 615.7 625 L 618 622.9 L 620 621.5 L 636 612.3 L 649 604.6 L 652 603 L 659 598.7 L 669 593.1 L 685 583.7 L 686 583.3 L 692 579.6 L 700 575.2 L 706 571.6 L 707 571.2 L 711 568.7 L 721 563 L 723 561.7 L 724 561.2 L 735 554.6 L 738 553.1 L 747 547.6 L 748 547.2 L 754 543.6 L 757 542 L 761 539.5 L 762 539.1 L 766 536.6 L 769 535.1 L 773 532.6 L 774 532.1 L 778 529.7 L 779.4 529 L 782 527.1 L 783 526 L 786 522 L 786.4 521 L 787.1 520 L 787.4 519 L 788 517.6 L 788.6 514 L 788.7 512 L 788.7 285 L 788.6 273 L 788.4 272 L 788 271.8 L 784 274.4 L 781 275.9 L 779 277.3 L 776 278.9 L 774 280.3 L 771 281.9 L 767 284.3 L 766 284.7 L 765 285.5 L 764 285.9 L 760 288.4 L 759 288.9 L 758 289.6 L 754 291.7 L 753 292.5 L 752 292.9 L 750 294.2 L 745.1 297 L 743 298.4 L 740 299.9 L 736 302.4 L 735 302.9 L 734 303.6 L 730 305.8 L 729 306.6 L 728 307 L 724 309.4 L 723 309.8 L 717 313.6 L 713 315.8 L 712 316.5 L 711 316.9 L 707 319.4 L 706 319.9 L 702 322.4 L 699 324 L 697 325.4 L 696 325.8 L 692 328.3 L 689 329.9 L 688 330.6 L 684 332.8 L 683 333.6 L 682 334 L 678 336.6 L 677.1 337 L 673 339.5 L 672 339.9 L 668 342.4 L 667 342.9 L 661 346.6 L 660.1 347 L 649 353.6 L 643 356.9 L 637 360.7 L 631 364 L 622 369.5 L 614 374 L 605 379.5 L 602 381 L 599.2 383 L 596 386 L 594 388.6 L 591.9 392 L 591.6 393 L 591 394 L 590.3 396 L 589.8 397 L 589.3 399 L 588.8 400 L 588.2 402 L 586.7 406 L 586.5 407 L 586 408 L 585.4 410 L 584.9 411 L 583.2 416 L 582.7 417 L 582.5 418 L 581.7 420 L 581.5 421 L 581 422 L 580.5 424 L 579.9 425 L 579.4 427 L 578.9 428 L 578.4 430 L 577.8 431 L 577.3 433 L 576.7 434 L 576.5 435 L 576 436 L 575.4 438 L 574.9 439 L 574.4 441 L 573.9 442 L 573.3 444 L 572.8 445 L 571.5 449 L 570.9 450 L 570.4 452 L 569.9 453 L 569.4 455 L 568.8 456 L 568.3 458 L 567.8 459 L 566.5 463 L 566 464.1 L 565.4 466 L 564.9 467 L 564.3 469 L 563.8 470 L 563.3 472 L 562.8 473 L 560.5 480 L 559.9 481 L 559.4 483 L 558.8 484 L 558.2 486 L 557.7 487 L 557.5 488 L 556.7 490 L 556.5 491 L 556 492 L 555.4 494 L 553.7 498 L 552.4 502 L 551.9 503 L 551.4 505 L 550.9 506 L 550.3 508 L 549.8 509 L 549.2 511 L 548.7 512 L 548.5 513 L 546.9 517 L 546.4 519 L 545.8 520 L 545.3 522 L 544.8 523 L 543.4 527 L 542.9 528 L 542.3 530 L 541.8 531 L 540.2 536 L 538.9 539 L 538.3 541 L 537.8 542 L 537.3 544 L 536.7 545 L 535.4 549 L 534.9 550 L 534.4 552 L 532.7 556 L 532.2 558 L 531.7 559 L 531.5 560 L 529.5 564 L 527.6 567 L 525 569.8 L 523 571.7 L 522 572.5 L 519 574.5 L 517 575.4 L 514 576.5 L 512 576.8 L 510 577.5 L 509 577.6 L 506 577.7 L 502 577.5 L 500.8 577 L 499 576.6 L 497.8 576 L 496 575.5 L 495 574.9 L 488 572.5 L 486.9 572 L 483 570.7 L 481.5 570 L 480 569.6 L 476.2 568 L 472 566.5 L 471 566 L 469 565.4 L 468 564.9 L 464 563.6 L 462.8 563 L 461 562.4 L 457.7 561 L 456 560.5 L 452.4 559 L 451 558.6 L 447 556.9 L 443 555.5 L 442 555 L 440 554.4 L 436.6 553 L 435 552.5 L 434 552 L 432 551.4 L 431.3 551 L 430 550.6 L 428.6 550 L 427 549.6 L 426 549 L 424 548.5 L 423 547.9 L 419 546.5 L 412.8 544 L 411 543.5 L 410 542.9 L 408 542.4 L 407 541.8 L 406 541.6 L 404.7 541 L 403 540.5 L 402 540 L 400 539.4 L 399 538.9 L 398 538.6 L 396.8 538 L 395 537.5 L 394 537 L 392 536.4 L 391.5 536 L 390 535.6 L 388.8 535 L 387 534.5 L 386 534 L 384 533.4 L 383 532.8 L 382 532.6 L 380.8 532 L 379 531.5 L 378 530.9 L 374 529.5 L 373 528.9 L 371 528.4 L 370.3 528 L 369 527.6 L 367 526.4 L 364 524.2 L 362.7 523 L 359.5 519 L 359.1 518 L 358.4 517 L 358.1 516 L 357.5 515 L 356.4 511 L 356.2 507 L 356.4 502 L 356.5 501 L 357 499.8 L 357.4 498 L 358 496.9 L 358.6 495 L 360 491.6 L 361.5 487 L 362 486.2 L 362.7 484 L 363 483.5 L 363.4 482 L 364 480.8 L 364.6 479 L 365 478.3 L 365.3 477 L 366 475.5 L 366.4 474 L 367 473 L 367.6 471 L 368 470.4 L 368.4 469 L 369 467.8 L 369.5 466 L 370 465 L 370.6 463 L 371.2 462 L 371.4 461 L 373 456.9 L 373.5 455 L 374.1 454 L 374.6 452 L 375 451.4 L 375.4 450 L 376 448.9 L 376.5 447 L 377.1 446 L 377.6 444 L 378.2 443 L 379.5 439 L 380.1 438 L 380.7 436 L 381 435.5 L 381.4 434 L 382 433 L 382.5 431 L 383.1 430 L 383.4 429 L 384 427.6 L 384.5 426 L 385.1 425 L 385.6 423 L 386.1 422 L 388.5 415 L 389.1 414 L 389.6 412 L 390.2 411 L 391.5 407 L 392.1 406 L 392.6 404 L 393.2 403 L 394.6 399 L 395.1 398 L 395.7 396 L 396.2 395 L 397.5 391 L 398.1 390 L 398.6 388 L 399 387.4 L 399.4 386 L 400 385 L 400.6 383 L 401.2 382 L 401.7 380 L 402.2 379 L 403.5 375 L 404 374 L 404.5 372 L 405.1 371 L 405.6 369 L 406.2 368 L 406.5 367 L 407.1 366 L 407.5 364 L 408.2 363 L 408.7 361 L 409.2 360 L 410.5 356 L 411.1 355 L 411.7 353 L 413 349.9 L 413.5 348 L 414.1 347 L 414.7 345 L 415 344.5 L 415.5 343 L 416 342 L 416.5 340 L 417.1 339 L 417.6 337 L 418.1 336 L 418.7 334 L 419.2 333 L 419.4 332 L 420.3 330 L 420.5 329 L 421.1 328 L 421.7 326 L 422.2 325 L 422.4 324 L 423.3 322 L 423.5 321 L 424.1 320 L 424.7 318 L 425.2 317 L 425.8 315 L 426.3 314 L 427.6 310 L 428.1 309 L 428.7 307 L 429.2 306 L 430.6 302 L 431.1 301 L 431.7 299 L 433.1 296 L 433.6 294 L 434.2 293 L 434.7 291 L 435.2 290 L 435.7 288 L 436.3 287 L 437.6 283 L 438.2 282 L 438.5 281 L 439.2 280 L 439.6 279 L 441.6 276 L 444.3 273 L 447 270.4 L 450 268.4 L 451 268 L 452 267.3 L 453 267 L 454 266.4 L 458 265.1 L 462 264.4 L 466 264.3 L 468 264.4 L 472 265.2 L 473 265.5 L 474.1 266 L 476 266.5 L 477 267 L 482 268.7 L 485.4 270 L 487 270.4 L 490.9 272 L 493 272.6 L 493.6 273 L 495 273.4 L 496.1 274 L 498 274.5 L 499.1 275 L 501 275.6 L 502 276.1 L 503 276.3 L 504.5 277 L 509 278.5 L 510 279.1 L 517 281.5 L 518 282.1 L 520 282.6 L 523.4 284 L 525 284.4 L 526.1 285 L 531 286.7 L 531.5 287 L 534 288 L 536 288.5 L 537 289.1 L 541 290.4 L 542.2 291 L 544 291.5 L 545 292 L 547 292.6 L 550.2 294 L 552 294.5 L 553 295.1 L 561 298 L 563 297.2 L 565 296.1 L 569 293.6 L 570 293.1 L 574 290.7 L 582 286.2 L 588 282.5 L 589 282.1 L 600 275.5 L 602.9 274 L 607 271.4 L 608 271 L 614.9 267 L 617 265.6 L 620 264 L 629 258.5 L 630 258 L 634 255.5 L 641.9 251 L 651 245.4 L 652 245 L 663 238.4 L 674 232 L 683 226.5 L 691 222 L 738.4 194 L 738 193.3 L 737.5 193 L 729 188.2 L 713 179 L 705 174.6 L 694 168 L 684 162.4 L 675 157 L 665 151.4 L 661 149 L 660 148.5 L 654 144.9 L 653 144.5 L 650.6 143 L 648 141.6 L 647 140.9 L 644 139.4 L 641.9 138 L 639 136.5 L 633 132.9 L 632 132.5 L 628 130 L 627 129.6 L 626 128.9 L 625 128.5 L 621 126 L 618 124.5 L 614 122 L 613 121.6 L 612 120.8 L 611 120.4 L 607 118 L 606 117.6 L 605 116.8 L 604 116.4 L 600 113.9 L 597 112.5 L 596.4 112 L 592 109.6 L 591 108.9 L 590 108.5 L 589.4 108 L 588 107.3 L 586 106 L 583 104.4 L 579 101.9 L 578 101.5 L 577 100.8 L 576 100.4 L 575.5 100 L 571 97.6 L 570 96.8 L 569 96.4 L 565 93.9 L 564 93.5 L 563 92.8 L 562 92.4 L 558 90 L 557 89.6 L 556 88.9 L 555 88.4 L 549 84.9 L 548 84.4 L 542 80.9 L 541 80.5 L 540 79.8 L 534 76.4 L 533 75.7 L 532 75.3 L 528 72.9 L 523 70.3 L 514 65 L 511 63.4 L 505 59.8 L 504 59.4 L 500 56.9 L 499 56.5 L 498 55.8 L 497 55.4 L 491 51.8 L 490 51.4 L 484 47.8 L 483 47.4 L 479 44.9 L 478 44.5 L 477 43.8 L 476 43.3 L 469 39.3 L 467 38 L 465 36.8 L 464 36.4 L 463 35.7 L 462 35.3 L 451 28.8 L 450 28.4 L 449 27.7 L 448 27.2 L 442 23.7 L 441 23.3 L 430 16.8 L 427 15.3 L 421 11.7 L 408 4.4 L 407 3.7 L 403.9 2 L 401.4 1 L 399 0.4 L 396 0.2 L 391 0.5 L 387 1.7 L 385 2.7 L 381 5.3 L 371 10.9 L 364 15.2 L 357 19.2 L 356 19.7 L 355 20.4 L 354 20.8 L 352 21.9 L 343 27.4 L 342 27.8 L 338 30.3 L 337 30.7 L 333 33.3 L 332 33.7 L 331 34.4 L 330 34.8 L 326 37.4 L 325 37.8 L 324 38.5 L 320 40.7 L 319 41.4 L 318 41.8 L 314 44.3 L 313 44.7 L 309 47.2 L 307 48.4 L 306 48.8 L 290 58.3 L 289 58.7 L 283 62.4 L 282 62.8 L 276 66.4 L 275 66.8 L 271 69.3 L 270 69.8 L 269 70.5 L 265 72.7 L 264 73.4 L 263 73.9 L 259 76.3 L 256 77.9 L 252 80.4 L 249 82 L 245 84.5 L 244 84.9 L 243 85.6 L 242 86 L 233 91.4 L 232 91.8 L 226 95.5 L 225 96 L 221 98.4 L 220 98.8 L 214 102.5 L 213 103 L 209.6 105 L 209 105.5 L 208 105.9 L 204 108.3 L 201 109.9 L 197 112.4 L 196 112.9 L 195 113.6 L 194 114 L 190.6 116 L 190 116.5 L 189 116.9 L 188 117.7 L 185.5 119 L 185 119.4 L 184 119.9 L 180 122.3 L 177 123.9 L 171 127.6 L 170.1 128 L 166 130.5 L 165 130.9 L 164 131.6 L 163.1 132 L 159 134.5 L 158 134.9 L 154 137.5 L 153 137.9 L 152 138.6 L 151.1 139 L 147 141.6 L 146 142 L 142 144.5 L 141 144.9 L 140 145.6 L 135.7 148 L 135 148.5 L 134 149 L 130 151.5 L 122 155.9 L 116 159.6 L 108 163.9 L 99 169.4 L 96 171 L 77 181.9 L 75 183.3 L 72 184.9 L 39.2 204 L 34 207.3 L 24 213 L 15 218.4 L 9 221.7 L 7.4 223 L 5 225.6 L 3.9 227 L 3.5 228 L 2.8 229 L 2.6 230 L 2 231 L 1.3 234 L 1 234.9 L 0.8 237 L 0.8 695 L 1 696.7 L 1.9 700 L 3 702.6 L 4 704.2 L 6 706.7 L 7.3 708 L 10 710 L 13 711.5 L 15.3 713 L 18 714.4 L 19 715.1 L 20 715.6 L 24 718 L 25 718.5 L 26 719.2 L 27 719.6 L 31 722.1 L 34 723.6 L 40 727.2 L 41 727.6 L 45 730.2 L 46 730.6 L 47 731.3 L 51 733.4 L 52 734.2 L 53 734.6 L 57 737.1 L 58 737.5 L 64 741.1 L 65 741.5 L 66 742.2 L 70 744.4 L 71 745.1 L 72 745.5 L 73 746.2 L 74 746.7 L 76 748 L 81 750.7 L 85 753.2 L 86 753.6 L 90 756.1 L 91 756.6 L 92 757.2 L 93 757.6 L 98 760.5 L 99 761.3 L 103 763.5 L 104 764.2 L 105 764.6 L 109 767.1 L 112 768.6 L 113 769.3 L 116 771.1 L 117 771.6 L 118 772.3 L 119 772.7 L 123 775.2 L 124 775.6 L 125 776.3 L 126 776.7 L 128 778.1 L 131 779.6 L 132 780.3 L 133 780.8 L 137 783.2 L 138 783.6 L 142 786.1 L 143 786.5 L 144 787.3 L 145 787.7 L 151 791.2 L 152 791.6 L 156 794.1 L 157 794.5 L 159.2 796 L 164 798.6 L 165 799.3 L 166 799.8 L 170 802.2 L 180 807.7 L 191 814.3 L 199 818.7 L 215 828.2 L 218 829.7 L 227 835.1 L 237 840.7 L 240.7 843 L 249 847.6 L 256.2 852 L 264 856.3 L 270 860 L 278 864.5 L 282 867 L 290 871.5 L 294 874 L 295 874.4 L 301 878 L 306 880.8 L 313 885.1 L 314 885.5 L 316.4 887 L 321 889.5 L 325 892 L 328 893.6 L 332 896.1 L 333 896.5 L 337 899 L 340 900.5 L 344 903 L 347 904.6 L 349 906 L 350 906.4 L 351 907.2 L 352 907.6 L 354.1 909 L 355 909.4 L 357.7 911 L 362 913.3 L 363 914.1 L 364 914.5 L 368 917 L 371 918.5 L 375.2 921 L 377.3 922 L 379 922.5 L 380 923 L 385 923.5 L 388 923.4 Z
    M 237 682.1 L 235 682.4 L 232 682.3 L 231 682.2 L 229 681.6 L 227 681.4 L 226 680.9 L 224 680.2 L 222 679.3 L 219 677.5 L 215 674 L 211.6 670 L 210.2 668 L 206 663 L 201.6 658 L 192.1 646 L 170.4 620 L 159.1 606 L 154.7 601 L 144 588 L 133.7 576 L 129 570.1 L 102.7 539 L 62.5 491 L 61.8 490 L 60.7 488 L 59.8 486 L 58.6 482 L 58.2 479 L 58 475 L 58.5 471 L 59.6 467 L 61.5 463 L 63.4 460 L 65.1 458 L 70 453.5 L 72 452 L 87 439.6 L 94 434 L 104 425.6 L 122 411.1 L 126 407.6 L 136 399.7 L 138 398.7 L 140 398.5 L 142 398.5 L 143 398.6 L 145 399.4 L 146.9 401 L 147.8 402 L 148.5 403 L 149.4 405 L 149.8 407 L 150.3 408 L 150.8 410 L 151.3 411 L 151.8 413 L 152.3 414 L 152.8 416 L 153.3 417 L 153.8 419 L 154.4 420 L 154.9 422 L 155.4 423 L 155.8 425 L 156.4 426 L 156.8 428 L 158.3 432 L 158.8 434 L 159.4 435 L 159.9 437 L 160.4 438 L 160.9 440 L 161.4 441 L 161.9 443 L 162.5 444 L 163 446 L 163.5 447 L 164 449 L 164.5 450 L 164.9 452 L 165.5 453 L 165.7 454 L 166.5 456 L 167 458 L 167.5 459 L 168 460.9 L 169.6 465 L 170 466.7 L 170.6 468 L 171 469.8 L 171.6 471 L 172 472.8 L 172.6 474 L 173.7 478 L 174.5 480 L 174.7 481 L 175.6 483 L 176 484.6 L 176.2 485 L 177 487.7 L 177.6 489 L 178 490.6 L 178.3 491 L 179 493.5 L 179.3 494 L 179.8 496 L 180.3 497 L 181 499.5 L 181.6 501 L 182 502.5 L 182.3 503 L 182.8 505 L 183.6 507 L 183.8 508 L 184.3 509 L 185 511.6 L 185.6 513 L 186 514.5 L 186.3 515 L 186.8 517 L 187.3 518 L 188 520.5 L 188.4 521 L 189 523.3 L 189.4 524 L 189.9 526 L 190.5 527 L 190.9 529 L 191.5 530 L 192 532 L 192.5 533 L 193 535 L 193.5 536 L 194 538 L 194.5 539 L 196 543.9 L 196.6 545 L 196.8 546 L 198.6 551 L 199 552.6 L 199.6 554 L 200 555.4 L 200.4 556 L 201 558.3 L 201.4 559 L 201.9 561 L 202.4 562 L 202.9 564 L 203.5 565 L 203.9 567 L 204.4 568 L 204.9 570 L 205.4 571 L 205.9 573 L 206.3 574 L 206.9 576 L 207.4 577 L 207.9 579 L 208.4 580 L 208.9 582 L 209.5 583 L 210 585 L 210.5 586 L 211 587.9 L 211.5 589 L 212 591 L 212.5 592 L 213 593.9 L 213.5 595 L 214 596.8 L 214.6 598 L 215 599.9 L 215.5 601 L 216 602.9 L 216.5 604 L 217 606 L 217.5 607 L 218 609 L 218.5 610 L 219 611.9 L 219.5 613 L 220 614.7 L 220.6 616 L 221 617.7 L 222 620 L 222.6 621 L 223 622 L 224.4 624 L 224.9 625 L 228 629 L 231 632 L 235 635.2 L 238 637.1 L 242.1 639 L 248 641 L 254.7 642 L 261 642 L 267 641.1 L 268 640.7 L 271 640.1 L 272 639.7 L 274 639.3 L 276 638.7 L 286.7 636 L 298 632.7 L 302 631.7 L 304 631.4 L 306 630.6 L 307 630.8 L 307.1 631 L 306.8 632 L 298 638.8 L 290 645.4 L 279 653.9 L 275 657.2 L 266 663.9 L 259 669.4 L 247 678.4 L 243 680.5 L 241 681.3 Z
    M 267 617.3 L 264 617.8 L 262 617.8 L 260 617.6 L 256 616.7 L 253 615.6 L 251 614.6 L 248 612.6 L 244.3 609 L 242.8 607 L 240.6 603 L 238.5 597 L 238.3 596 L 237.5 594 L 237.3 593 L 236.5 591 L 236.3 590 L 235.5 588 L 234.2 584 L 233.7 583 L 233.2 581 L 232.7 580 L 232.2 578 L 231.7 577 L 231.2 575 L 230.7 574 L 230.2 572 L 229.7 571 L 229.1 569 L 228.6 568 L 228.2 566 L 227.6 565 L 226.1 560 L 225.6 559 L 225.1 557 L 224.6 556 L 224.1 554 L 223.5 553 L 222 548.1 L 221.5 547 L 221 545.2 L 220.5 544 L 219.2 540 L 218.7 539 L 218.2 537 L 217.7 536 L 217.2 534 L 216.7 533 L 216.2 531 L 215.7 530 L 215.2 528 L 214.6 527 L 214.1 525 L 213.6 524 L 213.1 522 L 212.5 521 L 212.3 520 L 211.5 518 L 211 516.2 L 210.5 515 L 210 513 L 209.5 512 L 209 510 L 208.5 509 L 208 507 L 207.5 506 L 207 504 L 206.5 503 L 206.3 502 L 205.5 500 L 205 498 L 204.5 497 L 204.3 496 L 203.5 494 L 203.3 493 L 202.4 491 L 202.3 490 L 201.4 488 L 200.3 484 L 199.8 483 L 199 480.2 L 198.4 479 L 198 477.1 L 196.8 474 L 196.2 472 L 195.7 471 L 195.2 469 L 194.7 468 L 194.2 466 L 192.4 461 L 192 459.2 L 191.4 458 L 191 456.4 L 190.7 456 L 190.2 454 L 189 450.5 L 188.7 450 L 188.2 448 L 187.7 447 L 187.2 445 L 186.7 444 L 186.2 442 L 184.5 437 L 184.3 436 L 183.7 435 L 183 432.6 L 182.6 432 L 182.1 430 L 181.6 429 L 181.1 427 L 180.6 426 L 180.1 424 L 179.6 423 L 179.2 421 L 178.7 420 L 177.1 415 L 176.6 414 L 176.2 412 L 175.6 411 L 175.1 409 L 174.5 408 L 174 406 L 173.5 405 L 173 403 L 172.5 402 L 172 400 L 171.5 399 L 171 397 L 170.5 396 L 170 394 L 169.6 393 L 169.1 391 L 168.6 390 L 168.2 388 L 167.6 387 L 167.1 385 L 166.6 384 L 166.1 382 L 165.6 381 L 164.7 377 L 164.5 375 L 164.6 370 L 165.1 368 L 165.5 365 L 167.7 360 L 169.6 357 L 172 354.4 L 175 351.6 L 178 349.5 L 180 348.4 L 185 346.5 L 186 346.3 L 188 345.5 L 192 344.2 L 193 343.7 L 195 343.2 L 196 342.6 L 198 342 L 199 341.5 L 203 340.2 L 205 339.4 L 206 339.2 L 207 338.7 L 209 338.1 L 210 337.6 L 212 337.1 L 213 336.6 L 215 336.1 L 216 335.6 L 218 335 L 219 334.5 L 220.7 334 L 221 333.7 L 223 333.2 L 224 332.7 L 226 332.1 L 227 331.5 L 229 331 L 233 329.5 L 234 329.2 L 237 328.2 L 238 327.6 L 240 327.1 L 241 326.6 L 243 326 L 244 325.5 L 250 323.4 L 253 322.7 L 255 322.7 L 257 323.4 L 258 323.8 L 259.7 325 L 260.7 326 L 261.4 327 L 262.5 330 L 262.6 331 L 263.7 355 L 264.3 363 L 264.9 377 L 265.3 381 L 265.9 395 L 266.4 401 L 266.9 413 L 267.3 419 L 267.8 429 L 269.4 455 L 269.8 465 L 270.4 472 L 270.8 482 L 271.3 489 L 273 522 L 273.2 524 L 274 541 L 274.2 543 L 274.7 554 L 275 556.5 L 275.9 561 L 277.6 566 L 279 568.9 L 280 570.7 L 282.9 575 L 286 578.5 L 289 581.2 L 293 584.2 L 297 586.4 L 301 588.1 L 305 589.4 L 310 590.4 L 315 590.8 L 347 590.1 L 357 589.5 L 359 589.6 L 360 590 L 358.8 591 L 358 591.4 L 355 592 L 354 592.4 L 351.5 593 L 340 596.6 L 335 597.9 L 331 599.3 L 321.2 602 L 317 603.3 L 308 605.7 L 296 609.3 L 287 611.7 L 282 613.3 Z
    M 328 567.1 L 322 567.5 L 318 567.5 L 316 566.9 L 314 566.6 L 311 565.3 L 308 563.6 L 303.9 560 L 302.2 558 L 300.8 556 L 299.7 554 L 298.5 551 L 297.7 547 L 297 533.6 L 296.7 531 L 296.5 525 L 296 515.8 L 295.7 513 L 295.3 504 L 294.8 497 L 294.2 484 L 292.7 460 L 292 445.2 L 290.8 426 L 289.6 400 L 285.9 332 L 285.1 312 L 285.6 307 L 286.5 304 L 287.8 301 L 290.3 297 L 293 293.8 L 297 290.5 L 298 290 L 299 289.3 L 303 287.5 L 306 286.6 L 308 286.2 L 314 285.7 L 339 284 L 344 283.5 L 380.8 281 L 384 280.6 L 391 280.3 L 402 279.5 L 404 279.5 L 407 280.5 L 408.7 282 L 409.6 283 L 410.6 285 L 410.7 287 L 410.6 289 L 410 290.2 L 409.6 292 L 409 293.3 L 408.5 295 L 407.9 296 L 407.4 298 L 407 298.6 L 406.6 300 L 406 301.1 L 405.5 303 L 405 304 L 404.5 306 L 403.9 307 L 403.4 309 L 403 309.6 L 402.6 311 L 402 312.2 L 401.5 314 L 401 315 L 400.4 317 L 400 317.6 L 399.6 319 L 398.7 321 L 398.5 322 L 397.9 323 L 397.4 325 L 397 325.7 L 396.3 328 L 395.8 329 L 395.6 330 L 395 331.1 L 394.4 333 L 393.8 334 L 393.6 335 L 392.7 337 L 392.5 338 L 392 339 L 391.4 341 L 390.9 342 L 390.3 344 L 389.8 345 L 389.6 346 L 389 347 L 388.5 349 L 387.9 350 L 387.4 352 L 386.8 353 L 385.5 357 L 384.9 358 L 384.3 360 L 383.8 361 L 383.6 362 L 382.7 364 L 382.5 365 L 382 366 L 381.4 368 L 380.9 369 L 380.3 371 L 379.8 372 L 378.4 376 L 377.8 377 L 376.5 381 L 375.9 382 L 375.4 384 L 374.8 385 L 374.6 386 L 373.7 388 L 373.5 389 L 373 390 L 372.5 392 L 371.9 393 L 371.3 395 L 371 395.5 L 370.6 397 L 370 398 L 369.4 400 L 368.9 401 L 368.2 403 L 367.7 404 L 367.5 405 L 367 406 L 366.4 408 L 365.8 409 L 365.3 411 L 364 414 L 363.4 416 L 362.9 417 L 362.3 419 L 361.7 420 L 361.5 421 L 360.7 423 L 360.5 424 L 359.9 425 L 359.4 427 L 358.8 428 L 357.7 431 L 357.5 432 L 356.9 433 L 356.4 435 L 355.8 436 L 355.2 438 L 354 441 L 353.3 443 L 352.8 444 L 351.5 448 L 351 449 L 350.4 451 L 349.9 452 L 349.3 454 L 348.8 455 L 347.4 459 L 346.9 460 L 345.5 464 L 345 465 L 344.4 467 L 343.8 468 L 342.5 472 L 341.6 474 L 341.4 475 L 340.9 476 L 340.3 478 L 339.8 479 L 338.4 483 L 337.9 484 L 337.3 486 L 336.8 487 L 336.2 489 L 335.7 490 L 334.4 494 L 333.9 495 L 333.3 497 L 332.8 498 L 332.4 500 L 331.9 502 L 331.6 504 L 331.2 509 L 331.2 512 L 331.7 517 L 332.9 522 L 333.4 523 L 334 525 L 334.9 527 L 335.5 528 L 335.8 529 L 337.7 532 L 339.9 535 L 343 538.4 L 346 541.1 L 350 544.1 L 352 545.3 L 356 547.2 L 360 548.7 L 361 549.3 L 365 550.6 L 366 551.2 L 370 552.6 L 371 553.2 L 372 553.4 L 376 555.2 L 380 556.6 L 381 557.1 L 388 559.6 L 389 560.1 L 391 560.7 L 392 561.2 L 394 561.7 L 394.5 562 L 395.1 563 L 394 563.7 L 387 563.8 L 381 564.4 L 369 564.8 L 360 565.5 L 351 565.8 L 344 566.4 L 333 566.7 Z
  "/>
</svg>
