<svg id="Layer_1" data-name="Layer 1" xmlns="http://www.w3.org/2000/svg" viewBox="0 0 2000 2000"><defs><style>.cls-1{fill:#fff;}</style></defs><path d="M351.5275,1346.8044c2.81,19.8-6.1257,53.1656-19.86,74.1232-25.9619,39.6119-32.63,40.54-172.508,23.948-62.6677-7.428-78.7778-15.3866-81.8527-40.456-6.56-53.5154,68.3593-93.4529,175.4864-93.5494C338.7456,1310.7979,346.8488,1313.74,351.5275,1346.8044Z"/><path d="M446.7168,794.7692c38.4905,34.8368,41.4448,82.552,8.0671,130.207-30.0979,42.9642-86.6278,44.7247-123.611,3.8707-15.3384-16.9541-58.52-45.6532-95.9611-63.777-84.24-40.77-96.998-59.9184-58.93-88.4366C220.1388,743.7861,404.0058,756.1219,446.7168,794.7692Z"/><path d="M666.8556,343.5064c87.8336,44.52,97.42,76.1972,45.2312,149.4884-49.1382,69.01-88.3039,58.604-196.5405-52.213-52.3939-53.648-91.9817-106.3072-87.9783-117.0392C440.6514,288.7128,581.6989,300.3613,666.8556,343.5064Z"/><path d="M1874.2064,981.3494c49.6566,74.304,51.1278,109.587,5.8845,141.2886-39.13,27.4089-49.7651,28.048-108.333,6.596-48.0649-17.6053-55.3964-32.2563-84.8913-169.5657-28.6629-133.4989-27.9636-140.4567,14.1686-140.4567C1739.984,819.2116,1809.1029,883.9293,1874.2064,981.3494Z"/><path d="M1171.0549,812.6157c51.369,15.5433,103.8955,70.47,103.8955,108.6465,0,50.4886-58.2061,116.4242-102.774,116.4242-21.3676,0-63.6686-23.1522-96.3952-52.7919C937.061,859.33,872.4881,805.7906,803.0194,758.7627,727.2925,707.49,702.235,659.7147,720.6483,601.69c12.77-40.1907,84.7346-78.9827,146.5823-78.9827,55.505,0,142.4222,67.7322,142.4222,110.9738C1009.6528,670.8205,1124.9676,798.6641,1171.0549,812.6157Z"/><path d="M1012.993,1062.7438c97.9024,49.6687,116.8221,86.0128,78.7174,151.2489-35.5241,60.8228-64.5126,68.2267-114.3019,29.2056-46.6058-36.5371-156.3979-81.2015-311.0714-126.5533-150.8631-44.23-162.9457-51.176-168.4684-96.7087-5.6554-46.4852,75.16-163.2229,130.4119-188.3889,32.9437-15.0127,45.5206-12.4563,81.4186,16.52C840.9432,954.0129,947.9015,1029.7157,1012.993,1062.7438Z"/><path d="M1000.7175,1349.7948c60.1595,0,86.9654,24.0928,86.9654,78.1749,0,98.2762-47.8237,113.1563-262.6086,81.66-101.327-14.856-121.7781-13.3969-179.4657,12.794-70.1439,31.8584-109.3338,35.6447-159.28,15.3986-56.542-22.9231-74.4246-58.411-63.5841-126.2156,5.74-35.8859,2.7735-76.45-6.9095-94.5381-12.6613-23.6587-11.8775-37.8153,3.1111-55.8668,24.7439-29.8084,142.6513-19.6552,216.7624,18.6665,33.9928,17.5812,67.479,22.2719,109.02,15.2539,43.82-7.4039,79.67-1.4108,133.2215,22.2719C918.2378,1335.2162,973.49,1349.7948,1000.7175,1349.7948Z"/><path d="M1861.7862,1293.699c56.3853,56.3732,56.952,74.087,4.7752,149.73-14.7957,21.464-31.4484,65.6582-36.9953,98.228-15.4951,90.8724-80.273,153.4677-164.9835,159.4608-38.3459,2.701-86.99,1.3384-108.0918-3.0508s-72.3507-21.3676-113.88-37.7429c-49.4637-19.4865-95.4546-26.7939-133.294-21.1626-82.1661,12.2273-161.9086-31.7016-184.5181-101.6285-33.2572-102.8946,24.9006-181.2986,129.4714-174.5217,63.1983,4.1,82.8294-24.8886,25.2142-37.2485-93.0188-19.9447-116.0745-36.5491-110.9014-79.8872,2.7131-22.6819,22.8025-54.5282,44.6523-70.7588,39.0573-29.0247,40.9023-28.9885,109.2374,2.0137,83.9026,38.0564,108.5259,39.9255,108.5259,8.2118,0-13.204-31.376-43.0486-69.7219-66.3214-38.3578-23.2728-69.963-48.9572-70.2283-57.0846-.7355-21.9464,79.5133-133.4869,96.0334-133.4869,55.0226,0,216.063,146.2568,238.347,216.473,10.9611,34.5354,111.6732,95.6355,157.64,95.6355C1797.1409,1240.5575,1832.5686,1264.4694,1861.7862,1293.699Z"/><path class="cls-1" d="M1969.673,985.5819,2000,1116.2712l-58.3387,86.35,35.0056,242.7-65.3446,79.3565,2.3393,116.6774-98.023,114.3622s-380.3954,25.66-403.7285,23.3331c-23.3451-2.3393-70.0113-46.6782-70.0113-46.6782l-200.7006-6.9939-70.0112-42.0116-37.345-56.0114-95.5149-23.2125-252.2142-2.46-112.0108,42.0116-133.0287-2.3394L357.0623,1594.69,74.6779,1522.339l-40.0461,10.72L0,1478l11.6726-163.3556,207.26-86.64,231.51-36.8626,224.01,30.1461L324.396,1057.9325l-58.3507-86.35L58.3508,889.8982V754.5422l112.0108-65.3446,228.7123-11.66,224.0337,55.9994c29.6878,31.5328,103.8472,67.1293,105.0048,67.6719L673.09,706.5014,539.9406,588.3288l-84.9517-94.924L345.8359,389.1234,336.0565,255.13,469.1334,220.8l207.2725,8.8992,149.8743,97.36,48.8728,114.76,163.3556,37.345L1087.5141,612.18l114.5551,95.3581,361.524,187.0263L1617.2773,714.87l170.3616-51.3448Zm-89.5821,137.0561c45.2433-31.7016,43.7721-66.9846-5.8845-141.2886-65.1035-97.42-134.2224-162.1378-173.1712-162.1378-42.1322,0-42.8315,6.9578-14.1686,140.4567,29.4949,137.3094,36.8264,151.96,84.8913,169.5657C1830.3258,1150.686,1840.9613,1150.0469,1880.0909,1122.638Zm-13.5295,320.7906c52.1768-75.6426,51.61-93.3564-4.7752-149.73-29.2176-29.23-64.6453-53.1415-78.7174-53.1415-45.9668,0-146.6789-61.1-157.64-95.6355-22.284-70.2162-183.3244-216.473-238.347-216.473-16.52,0-96.7689,111.54-96.0334,133.4869.2653,8.1274,31.87,33.8118,70.2283,57.0846,38.3459,23.2728,69.7219,53.1174,69.7219,66.3214,0,31.7137-24.6233,29.8446-108.5259-8.2118-68.3351-31.0022-70.18-31.0384-109.2374-2.0137-21.85,16.2306-41.9392,48.0769-44.6523,70.7588-5.1731,43.3381,17.8826,59.9425,110.9014,79.8872,57.6152,12.36,37.9841,41.3484-25.2142,37.2485-104.5708-6.7769-162.7286,71.6271-129.4714,174.5217,22.61,69.9269,102.352,113.8558,184.5181,101.6285,37.8394-5.6313,83.83,1.6761,133.294,21.1626,41.5292,16.3753,92.7776,33.3536,113.88,37.7429s69.7459,5.7518,108.0918,3.0508c84.7105-5.9931,149.4884-68.5884,164.9835-159.4608C1835.113,1509.0868,1851.7657,1464.8926,1866.5614,1443.4286ZM1274.95,921.2622c0-38.177-52.5265-93.1032-103.8955-108.6465-46.0873-13.9516-161.4021-141.7952-161.4021-178.9351,0-43.2416-86.9172-110.9738-142.4222-110.9738-61.8477,0-133.8125,38.792-146.5823,78.9827-18.4133,58.0252,6.6442,105.8007,82.3711,157.0732C872.4881,805.7906,937.061,859.33,1075.7812,984.8945c32.7266,29.64,75.0276,52.7919,96.3952,52.7919C1216.7443,1037.6864,1274.95,971.7508,1274.95,921.2622Zm-183.24,292.7305c38.1047-65.2361,19.185-101.58-78.7174-151.2489-65.0915-33.0281-172.05-108.7309-303.2938-214.6763-35.898-28.9764-48.4749-31.5328-81.4186-16.52-55.2517,25.166-136.0673,141.9037-130.4119,188.3889,5.5227,45.5327,17.6053,52.4784,168.4684,96.7087,154.6735,45.3518,264.4656,90.0162,311.0714,126.5533C1027.1978,1282.2194,1056.1863,1274.8155,1091.71,1213.9927Zm-4.0275,213.977c0-54.0821-26.8059-78.1749-86.9654-78.1749-27.228,0-82.48-14.5786-122.767-32.401-53.5515-23.6827-89.4012-29.6758-133.2215-22.2719-41.5414,7.018-75.0276,2.3273-109.02-15.2539-74.1111-38.3217-192.0185-48.4749-216.7624-18.6665-14.9886,18.0515-15.7724,32.2081-3.1111,55.8668,9.683,18.0876,12.6493,58.6522,6.9095,94.5381-10.84,67.8046,7.0421,103.2925,63.5841,126.2156,49.9461,20.2461,89.136,16.46,159.28-15.3986,57.6876-26.1909,78.1387-27.65,179.4657-12.794C1039.8592,1541.126,1087.6829,1526.2459,1087.6829,1427.97ZM712.0868,492.9948c52.1889-73.2912,42.6024-104.9687-45.2312-149.4884-85.1567-43.1451-226.2042-54.7936-239.2876-19.7638-4.0034,10.732,35.5844,63.3912,87.9783,117.0392C623.7829,551.5988,662.9486,562.0052,712.0868,492.9948ZM454.7839,924.9762c33.3777-47.655,30.4234-95.37-8.0671-130.207-42.711-38.6473-226.578-50.9831-270.4345-18.1359-38.0685,28.5182-25.3107,47.667,58.93,88.4366,37.4415,18.1238,80.6227,46.8229,95.9611,63.777C368.1561,969.7009,424.686,967.94,454.7839,924.9762ZM331.6673,1420.9276c13.7345-20.9576,22.67-54.3233,19.86-74.1232-4.6787-33.0643-12.7819-36.0065-98.7345-35.9342-107.1271.0965-182.0462,40.034-175.4864,93.5494,3.0749,25.0694,19.185,33.028,81.8527,40.456C299.0371,1461.468,305.7054,1460.54,331.6673,1420.9276Z"/></svg>