<svg id="Layer_1" data-name="Layer 1" xmlns="http://www.w3.org/2000/svg" viewBox="0 0 2000 2000"><defs><style>.cls-1{fill:#fff;}.cls-2{fill:#859b2a;}</style></defs><path class="cls-1" d="M2000,454.5291c0,37.2743-3.3466,233.2674-70.9874,432.8538-39.3445,116.2421-84.8674,211.9111-135.2816,284.7112,207.8136,166.9138,101.8473,365.7279-14.663,300.1359-75.3531-42.423-133.7369-57.8583-184.4085-56.5711,43.7316,248.7026-31.89,386.5585-171.805,328.1747-88.729,25.7219-160.2312-24.1881-161.261-131.935a117.3751,117.3751,0,0,1-38.0573-25.207c-48.0973-15.1886-74.5915-58.8988-79.2146-101.6006-30.6132-6.6933-51.4439-23.9092-63.2751-33.9384-1.2872-1.04-2.5744-2.07-3.6041-3.0892-29.5727,2.821-61.9772.2467-89.2438-3.6041-14.1481,39.8594-47.0675,70.9874-94.3924,76.64-18.7713,52.7311-79.9869,82.8187-135.2816,85.1356-76.3828,84.61-235.3376,39.0871-256.6831-88.7289-90.0161,146.5872-354.1541,88.4715-297.5723-143.262l.2575-.5149C19.3458,1145.3425-27.9684,963.7657,14.4653,753.9034c73.0362-271.0888,154.31-420.0143,256.9406-420.0143h.2467c84.6207,0,111.1149,67.9089,118.3124,107.2641,17.2373.5042,46.0377,5.6529,66.3536,24.1667,44.5039-61.988,103.9175-105.9663,170.5178-126.54,23.1583-21.86,49.8993-44.9973,86.68-67.9089,18.01-11.0482,45.008-28.0281,81.7889-28.0281A115.052,115.052,0,0,1,884.5493,285.02a32.1316,32.1316,0,0,1,3.8615,4.902c41.6614-26.2368,129.3713-61.73,184.666,20.3051,45.78,67.8982,10.544,123.2036-18.782,204.467,19.8117-3.5934,39.0978,3.6148,54.2757,11.07,126.5395-25.9794,173.8644,85.65,140.4195,156.37,1.03,2.3169,1.802,4.8913,2.5743,7.1974,30.8706-19.2861,65.0772-28.5537,103.9068-17.2373h2.3169c77.9274-191.3378,125.51-250.2366,195.4675-250.2366,2.3169,0,4.88,0,7.4549.2467a102.2075,102.2075,0,0,1,24.95,4.6338c25.4645-34.9681,55.5521-58.8987,103.1345-58.8987a112.79,112.79,0,0,1,51.1864,12.0887c6.4252-7.7016,12.5929-15.1672,18.7713-22.3646,20.0584-23.9306,57.6116-68.6813,118.3123-68.6813C1922.8449,288.881,2000,310.484,2000,454.5291Zm-111.2115-.0858c0-66.3536-8.9994-68.4131-45.008-25.4645-23.6625,28.2962-53.2352,64.0367-76.3828,97.4709-23.6625,34.7214-42.9486,66.1069-68.928,98.7688-17.484,21.603-37.0383,45.5337-50.929,58.6414,14.4056-67.126,26.2368-98.5114,34.7214-138.1134,19.0394-87.71,11.5738-90.0161-38.5722-1.2871-16.465,29.0685-37.8106,73.0361-44.7506,92.58-9.7825,27.2665-18.01,67.9089-24.4348,90.5524-17.7522,12.3353-58.1264,26.226-75.8786,30.86,17.4947-51.1865,27.5239-94.3925,39.87-135.0349,4.88-15.1779,22.6327-89.7586,14.6522-90.2735-4.6231-.5256-51.948,90.0268-70.2044,129.3606-18.267,39.6233-37.8106,90.2842-46.81,114.2041-14.663,3.0892-39.6127,7.4549-59.1562,6.1677-12.6036-.7723-21.603,2.0595-30.86.5149-34.9789-6.1677-38.84-.7616-49.6419,15.95-14.663,22.1178-40.1275,42.187-61.4731,57.869-40.1168,29.8409-106.2237,40.1168-162.8055,43.4634,4.8912-9.5143,4.8912-16.9692,11.3271-26.2261,16.1969-11.8419,36.77-38.84,44.7506-45.008,7.97-6.4359,16.7118-16.2184,5.3954-15.1779-11.5738,1.019-18.2564,1.802-29.5835,1.802.5256-1.2871.5256-3.8615,1.0405-4.9019,15.682-30.0876,44.2357-80.2336,40.3742-88.2034-12.3461,1.5339-35.4937,10.8015-38.3255,8.4739-4.1082-3.3359,43.2168-84.8567,39.3553-100.8068-20.5733,5.1272-43.7209,16.1968-62.76,24.1773-8.4846,3.5933-27.5133,12.85-38.83,15.95,6.4251-18.2778,11.0589-31.6537,15.1671-45.0295-15.682,5.921-31.3747,15.7035-45.78,21.8711-21.0882,9.2569-38.83,20.8307-54.78,27.5133-25.4645,10.8015-43.7209,29.0793-47.325,25.2178,4.8913-18.2564,20.3266-41.93,16.4651-45.7911-12.861-.5041-48.3547,27.7815-55.5521,34.2173-17.2374,14.91-36.5235,35.2256-45.2655,48.6014,0-5.6528-3.3467-23.6517-3.8615-30.6132,27.2665-14.1374,61.9879-42.9486,81.0166-77.67,15.95-28.8,34.7214-80.7484,38.3148-138.36,5.1486-9.2676,16.7224-39.87,22.6434-55.3054,6.1677-16.1969,22.1179-52.4629,14.91-63.2644-20.3158-1.8021-42.4337,20.3158-65.3238,32.1471-17.2267,8.7527-31.3748,22.89-41.404,33.4449-7.723,8.2272-7.2082,9.5143-19.0394,11.3164-28.8,3.84-54.5224,9.2569-78.4423,22.89-3.0892-7.4656,7.97-19.05,17.7523-68.1664,11.3163-56.8393,8.742-57.6116-22.3754-38.5829-30.3557,19.0394-51.9587,38.068-74.5915,59.9285-11.8312,11.0589-10.544,13.3758-24.1773,16.4757-45.78,10.0292-94.65,40.3743-131.6882,95.9264-20.0584,30.345-30.0876,62.2454-30.86,98.2325-.5149,23.405,3.3466,49.1377,10.8015,64.0474,1.802,3.6041,1.03,3.8615-3.3466,18.01-5.3954,16.7225-10.2867,53.2352-5.138,69.4428,3.6041,11.3271,9,13.88,12.6035,15.9394,3.8616,25.7327,27.5133,43.9891,42.4337,48.6122,12.3462,3.8615,9-5.1487,8.7528-13.8908,11.5738,5.6636,28.543,16.1969,45.77,15.95,8.7528,0,9.2676-8.9994,9.01-15.682a202.7047,202.7047,0,0,0,25.1964-3.6148c14.4055-2.821,27.7814-7.1867,41.6721-11.8205,5.6528-2.0487,32.4045,9.7718,32.4045,16.7225-10.0292-.2682-24.6922-11.07-34.2066-7.723,2.5744,13.8907,21.8605,26.226,21.8605,39.3552-14.4056-3.3467-28.0281-10.2974-42.9486-11.07,9.2569,24.4455,26.741,48.6229,24.4348,51.4439-3.3467,3.8615-10.2866,5.921-23.92,8.4953-32.4045,5.91-93.3627,10.5441-113.1637-.2681C543.4063,908.9,521.5459,878.04,508.9424,856.6839c-8.2272-14.3949-13.3759-17.4841-49.8886-33.681.7723-12.0886,4.3657-33.1875,5.3954-45.008,3.0892-41.93,4.6338-64.5623,7.1974-96.7094.783-9.7717,2.3169-51.7013-3.8508-53.75-3.604,1.5338-16.465,30.86-22.6327,59.66-12.6035,60.9582-23.405,96.4519-26.7517,123.9652-21.3456-10.0292-38.83-18.2564-50.9183-26.9984-8.2379-5.921-11.0589-6.1677-10.04-13.1184,5.6635-37.5532,11.07-56.3244,15.4353-82.2931,7.97-50.1567,20.584-115.2232,14.4056-136.322-5.921-3.0892-30.0876,55.0372-34.464,68.4131-11.5738,33.4342-26.4942,80.77-36.0086,106.7493-17.484-38.84-23.92-68.4346-26.9984-96.1945-3.604-33.6917-6.9507-51.4439-6.9507-104.175,0-25.4645,2.5744-83.0761-11.5738-82.2931-20.3158,7.7123-58.3839,72.7788-73.3043,108.7874-21.0881,50.1567-53.2352,125.0056-75.0957,224.01-14.1481,65.3346-36.0085,239.4565,62.5029,377.57C284.16,1293.3992,297.5354,1313.4683,313.99,1335.3287c9.01,12.0887,6.6933,16.7225,0,56.85-4.623,36.2553-11.3163,84.8782-4.1082,87.4311,7.1975-.2467,17.2267-32.3938,31.1174-98.2326,7.7123,5.6529,14.663,42.6805,17.2266,67.6408,2.8318,25.1964,4.3764,38.0681,7.4656,39.0871,7.97,0,10.8015-16.4651,13.3758-57.8583,1.2872-17.4948-1.5446-38.0681-5.6635-54.79,11.5738,11.3163,23.92,37.8,27.524,55.8095,7.7122,38.0681,10.0292,30.345,13.1184,1.2872,3.5933-34.9789-6.9508-54.0183-21.86-82.5613-3.6041-8.742,5.91-32.147,10.2867-49.8992,21.3455-86.6695,47.3249-123.6971,64.5515-153.2912,22.1179-38.0574,41.1573-61.72,66.0962-94.3711,19.8117-25.99,55.0372-18.01,96.9668-7.4763,36.0086,8.7421,85.9079,36.2768,126.5395,58.3946,15.1779,8.2272,45.2655,32.9194,54.5224,42.4337a190.3681,190.3681,0,0,0,26.4943,22.89c-7.4549,6.1677-33.6917,19.2861-44.5039,28.2856-17.4841,14.663-41.1466,33.7024-56.5712,50.1567-22.1286,23.405-49.1269,59.1562-57.0967,86.68-10.2973,35.2255,12.3354,33.9383,45.5122,35.74,26.7517,1.2871,55.5628,6.1677,87.9673,12.3461-18.5137,25.4538-24.1773,37.0383-54.2649,45.2655-24.6922,6.94-47.5824,2.8317-62.5028,7.723-23.4051-7.723-52.9778,12.861-64.0367,39.8593-13.1184,11.5738-22.6328,30.0876-18.2671,42.1763,16.98-6.4358,33.445-20.8307,53.4926-25.2071-6.94,9.7825-16.7117,31.1281-11.0589,46.81,22.6327-10.0292,36.266-25.9579,63.79-36.7809,19.2861-7.7015,45.78-5.8995,64.0474-15.4246,10.0292-5.4061,12.3354-28.0388,22.6328-45.2654,11.3056-18.7713,25.4537-34.464,41.1465-49.6312,16.1969-15.1778,38.5829,56.3245,37.2957-8.2378-.7723-39.8594-39.87-37.8107-83.3335-47.5824,17.4841-7.7123,59.6711-34.7214,76.1254-35.2256,24.95-.5256,28.8111,3.5934,37.8106,7.97,48.87,23.4051,113.1637,34.4533,167.4286,27.524,18.01-2.3276,15.4353-5.1486,26.2368.4934,36.7809,19.2969,50.1568,39.6234,59.9285,40.3957,17.7522,1.5339,85.1356-19.0394,123.7078-4.1082-22.3753,32.3938-46.2952,89.7587-36.266,108.015,5.921,1.8021,6.6933-8.4953,13.3758-22.6434,6.94-14.6523,19.5435-34.7215,42.187-54.265-27.524,66.6218-13.3758,105.9663-8.7527,105.194,4.6338-.7723,7.4655-16.4543,11.8312-32.1471,5.6635-21.0881,15.4353-37.0383,25.7219-55.0372-4.3656,19.8117-3.604,41.4039-.7723,59.66,2.8318,16.7225,9.2569,36.0193,13.1184,34.4747,3.8508-1.802,4.3764-22.1286,6.94-42.1763a369.1429,369.1429,0,0,1,11.8313-55.3054c24.6922,20.0584,34.2065,34.9789,41.1572,47.8291,9.2569,17.7522,6.6826,30.86-9.525,59.6711-10.8015,2.5743-25.1964,24.96-25.9687,58.1264-7.97,14.1482-6.1784,37.8214-.7723,57.3649,7.7123,2.5743,16.1969-22.6435,29.83-41.6614,14.663-21.0989,22.1178-31.9,32.93-30.6132,4.88,7.97,12.0779,21.8712,23.1369,47.8291,8.7527,21.0989,13.8907,46.0378,23.4157,15.7035,6.4251-20.584,11.3057-31.3855,7.4549-56.0777-9.2569-55.0373,8.2271-79.4828-6.6933-94.1243,0-6.4359.5149-13.3759.5149-29.5942,0-27.2451-17.7415-31.3641-34.464-41.3933-14.1482-8.4953-37.5532-23.405-55.0373-35.4937,24.4348-17.7522,56.5819-41.1572,83.0761-59.1669,41.1466-8.2164,98.5007-15.4246,144.7959-11.0482,52.4737,4.88,94.9074,21.3456,125.2524,31.6322,10.2866,3.3467,60.4433,29.5727,61.2156,28.5537,3.3467-2.5743-32.6619-46.2952-40.3849-54.5331-23.92-25.1963-30.345-38.3147-56.067-59.1454-14.3948-11.3271-13.8907-13.1292-12.0887,28.5537-19.2861-16.4758-25.7112-27.2666-41.6614-38.5937-35.2362-24.6922-19.0286-.5148-13.1184,38.5937-32.9193-9.5358-67.6407-13.3758-99.53-13.3758,44.2358-35.7619,80.7592-68.928,125.7672-123.2037,43.7209-52.4736,97.4817-142.49,148.1426-292.4342C1878.5019,689.5234,1888.7885,522.61,1888.7885,454.4433Z"/><path class="cls-2" d="M1843.7805,428.9788c36.0086-42.9486,45.008-40.8891,45.008,25.4645,0,68.1663-10.2866,235.08-65.0664,397.36C1773.0612,1001.7479,1719.3,1091.764,1675.58,1144.2376c-45.008,54.2757-81.5314,87.4418-125.7672,123.2037,31.89,0,66.6111,3.84,99.53,13.3758-5.91-39.1085-22.1178-63.2859,13.1184-38.5937,15.95,11.3271,22.3753,22.1179,41.6614,38.5937-1.802-41.6829-2.3061-39.8808,12.0887-28.5537,25.722,20.8307,32.1471,33.9491,56.067,59.1454,7.723,8.2379,43.7316,51.9588,40.3849,54.5331-.7723,1.019-50.929-25.207-61.2156-28.5537-30.345-10.2866-72.7787-26.7517-125.2524-31.6322-46.2952-4.3764-103.6493,2.8318-144.7959,11.0482-26.4942,18.01-58.6413,41.4147-83.0761,59.1669,17.4841,12.0887,40.8891,26.9984,55.0373,35.4937,16.7225,10.0292,34.464,14.1482,34.464,41.3933,0,16.2183-.5149,23.1583-.5149,29.5942,14.92,14.6415-2.5636,39.087,6.6933,94.1243,3.8508,24.6922-1.03,35.4937-7.4549,56.0777-9.525,30.3343-14.663,5.3954-23.4157-15.7035-11.059-25.9579-18.2564-39.8594-23.1369-47.8291-10.8123-1.2872-18.2671,9.5143-32.93,30.6132-13.6333,19.0179-22.1179,44.2357-29.83,41.6614-5.4061-19.5435-7.1974-43.2167.7723-57.3649.7723-33.1661,15.1672-55.5521,25.9687-58.1264,16.2076-28.8112,18.7819-41.9189,9.525-59.6711-6.9507-12.85-16.465-27.7707-41.1572-47.8291a369.1429,369.1429,0,0,0-11.8313,55.3054c-2.5636,20.0477-3.0892,40.3743-6.94,42.1763-3.8615,1.5446-10.2866-17.7522-13.1184-34.4747-2.8317-18.2564-3.5933-39.8486.7723-59.66-10.2866,17.9989-20.0584,33.9491-25.7219,55.0372-4.3657,15.6928-7.1974,31.3748-11.8312,32.1471-4.6231.7723-18.7713-38.5722,8.7527-105.194-22.6435,19.5435-35.247,39.6127-42.187,54.265-6.6825,14.1481-7.4548,24.4455-13.3758,22.6434-10.0292-18.2563,13.8907-75.6212,36.266-108.015-38.5722-14.9312-105.9556,5.6421-123.7078,4.1082-9.7717-.7723-23.1476-21.0988-59.9285-40.3957-10.8015-5.642-8.2271-2.821-26.2368-.4934-54.2649,6.9293-118.559-4.1189-167.4286-27.524-9-4.3763-12.861-8.4953-37.8106-7.97-16.4543.5042-58.6413,27.5133-76.1254,35.2256,43.4634,9.7717,82.5612,7.723,83.3335,47.5824,1.2872,64.5623-21.0988-6.94-37.2957,8.2378-15.6928,15.1672-29.8409,30.86-41.1465,49.6312-10.2974,17.2266-12.6036,39.8593-22.6328,45.2654-18.2671,9.5251-44.7613,7.7231-64.0474,15.4246-27.524,10.823-41.1573,26.7517-63.79,36.7809-5.6528-15.682,4.1189-37.0276,11.0589-46.81-20.0476,4.3764-36.5127,18.7713-53.4926,25.2071-4.3657-12.0887,5.1487-30.6025,18.2671-42.1763,11.0589-26.9983,40.6316-47.5823,64.0367-39.8593,14.92-4.8913,37.8106-.783,62.5028-7.723,30.0876-8.2272,35.7512-19.8117,54.2649-45.2655-32.4045-6.1784-61.2156-11.059-87.9673-12.3461-33.1768-1.8021-55.81-.5149-45.5122-35.74,7.97-27.524,34.9681-63.2752,57.0967-86.68,15.4246-16.4543,39.0871-35.4937,56.5712-50.1567,10.8122-9,37.049-22.1179,44.5039-28.2856a190.3681,190.3681,0,0,1-26.4943-22.89c-9.2569-9.5143-39.3445-34.2065-54.5224-42.4337-40.6316-22.1178-90.5309-49.6525-126.5395-58.3946-41.93-10.5333-77.1551-18.5138-96.9668,7.4763-24.9389,32.6513-43.9783,56.3137-66.0962,94.3711-17.2266,29.5941-43.206,66.6217-64.5515,153.2912-4.3764,17.7522-13.8908,41.1572-10.2867,49.8992,14.91,28.543,25.4538,47.5824,21.8605,82.5613-3.0892,29.0578-5.4062,36.7809-13.1184-1.2872-3.6041-18.01-15.95-44.4932-27.524-55.8095,4.1189,16.7224,6.9507,37.2957,5.6635,54.79-2.5743,41.3932-5.4061,57.8583-13.3758,57.8583-3.0892-1.019-4.6338-13.8907-7.4656-39.0871-2.5636-24.96-9.5143-61.9879-17.2266-67.6408-13.8907,65.8388-23.92,97.9859-31.1174,98.2326-7.2081-2.5529-.5148-51.1758,4.1082-87.4311,6.6933-40.1275,9.01-44.7613,0-56.85-16.4543-21.86-29.83-41.9295-128.5882-180.0321-98.5114-138.1134-76.651-312.2353-62.5029-377.57,21.86-99.0048,54.0076-173.8537,75.0957-224.01,14.92-36.0086,52.9885-101.0751,73.3043-108.7874,14.1482-.783,11.5738,56.8286,11.5738,82.2931,0,52.7311,3.3467,70.4833,6.9507,104.175,3.0785,27.76,9.5144,57.3541,26.9984,96.1945,9.5144-25.9794,24.4348-73.3151,36.0086-106.7493,4.3764-13.3759,28.543-71.5023,34.464-68.4131,6.1784,21.0988-6.4359,86.1653-14.4056,136.322-4.3657,25.9687-9.7718,44.74-15.4353,82.2931-1.019,6.9507,1.802,7.1974,10.04,13.1184,12.0887,8.742,29.5727,16.9692,50.9183,26.9984,3.3467-27.5133,14.1482-63.007,26.7517-123.9652,6.1677-28.8,19.0287-58.1265,22.6327-59.66,6.1677,2.0487,4.6338,43.9783,3.8508,53.75-2.5636,32.1471-4.1082,54.78-7.1974,96.7094-1.03,11.82-4.6231,32.9194-5.3954,45.008,36.5127,16.1969,41.6614,19.2861,49.8886,33.681,12.6035,21.3563,34.4639,52.2162,54.0182,63.0177,19.801,10.8122,80.7592,6.1784,113.1637.2681,13.6333-2.5743,20.5732-4.6338,23.92-8.4953,2.3062-2.821-15.1779-26.9984-24.4348-51.4439,14.92.7723,28.543,7.723,42.9486,11.07,0-13.1292-19.2861-25.4645-21.86-39.3552,9.5144-3.3467,24.1774,7.4548,34.2066,7.723,0-6.9507-26.7517-18.7712-32.4045-16.7225-13.8907,4.6338-27.2666,9-41.6721,11.8205a202.7047,202.7047,0,0,1-25.1964,3.6148c.2574,6.6826-.2574,15.682-9.01,15.682-17.2266.2467-34.1958-10.2866-45.77-15.95.2467,8.7421,3.5934,17.7523-8.7528,13.8908-14.92-4.6231-38.5721-22.88-42.4337-48.6122-3.604-2.0594-8.9994-4.6123-12.6035-15.9394-5.1487-16.2076-.2574-52.72,5.138-69.4428,4.3763-14.1482,5.1486-14.4056,3.3466-18.01-7.4549-14.91-11.3164-40.6424-10.8015-64.0474.7723-35.9871,10.8015-67.8875,30.86-98.2325,37.0383-55.5521,85.9079-85.8972,131.6882-95.9264,13.6333-3.1,12.3461-5.4168,24.1773-16.4757,22.6328-21.86,44.2358-40.8891,74.5915-59.9285,31.1174-19.0287,33.6917-18.2564,22.3754,38.5829-9.7825,49.1162-20.8415,60.7008-17.7523,68.1664,23.92-13.6333,49.6419-19.05,78.4423-22.89,11.8312-1.8021,11.3164-3.0892,19.0394-11.3164,10.0292-10.5548,24.1773-24.6922,41.404-33.4449,22.89-11.8313,45.008-33.9492,65.3238-32.1471,7.2082,10.8015-8.742,47.0675-14.91,63.2644-5.921,15.4353-17.4948,46.0378-22.6434,55.3054-3.5934,57.6116-22.3646,109.56-38.3148,138.36-19.0287,34.7214-53.75,63.5326-81.0166,77.67.5148,6.9615,3.8615,24.96,3.8615,30.6132,8.742-13.3758,28.0281-33.6917,45.2655-48.6014,7.1974-6.4358,42.6911-34.7214,55.5521-34.2173,3.8615,3.8615-11.5738,27.5347-16.4651,45.7911,3.6041,3.8615,21.8605-14.4163,47.325-25.2178,15.95-6.6826,33.6916-18.2564,54.78-27.5133,14.4056-6.1676,30.0983-15.95,45.78-21.8711-4.1082,13.3758-8.742,26.7517-15.1671,45.0295,11.3163-3.1,30.345-12.3569,38.83-15.95,19.0394-7.9805,42.187-19.05,62.76-24.1773,3.8615,15.95-43.4635,97.4709-39.3553,100.8068,2.8318,2.3276,25.9794-6.94,38.3255-8.4739,3.8615,7.97-24.6922,58.1158-40.3742,88.2034-.5149,1.04-.5149,3.6148-1.0405,4.9019,11.3271,0,18.01-.783,29.5835-1.802,11.3164-1.04,2.5743,8.742-5.3954,15.1779-7.98,6.1677-28.5537,33.1661-44.7506,45.008-6.4359,9.2569-6.4359,16.7118-11.3271,26.2261,56.5818-3.3466,122.6887-13.6225,162.8055-43.4634,21.3456-15.682,46.81-35.7512,61.4731-57.869,10.8015-16.7118,14.663-22.1179,49.6419-15.95,9.2569,1.5446,18.2563-1.2872,30.86-.5149,19.5435,1.2872,44.4932-3.0785,59.1562-6.1677,8.9994-23.92,28.543-74.5808,46.81-114.2041,18.2564-39.3338,65.5813-129.8862,70.2044-129.3606,7.98.5149-9.7717,75.0956-14.6522,90.2735-12.3462,40.6424-22.3754,83.8484-39.87,135.0349,17.7522-4.6339,58.1264-18.5246,75.8786-30.86,6.4252-22.6435,14.6523-63.2859,24.4348-90.5524,6.94-19.5436,28.2856-63.5112,44.7506-92.58,50.146-88.729,57.6116-86.4228,38.5722,1.2871-8.4846,39.602-20.3158,70.9874-34.7214,138.1134,13.8907-13.1077,33.445-37.0384,50.929-58.6414,25.9794-32.6619,45.2655-64.0474,68.928-98.7688C1790.5453,493.0155,1820.118,457.275,1843.7805,428.9788Zm-636.0336,836.3923c24.9389,14.92,32.6619,15.446,56.3244,17.7522-25.4645-55.81-40.3849-98.5114-51.7013-138.3815-11.5738-40.8891-16.9692-60.9475-41.404-92.3116-17.7522,15.9288-35.7511,35.9872-48.6121,60.9475-10.8015,20.8307-11.8312,43.4527-11.8312,43.4527C1148.3333,1187.7118,1171.4809,1220.363,1207.7469,1265.3711Z"/><path class="cls-1" d="M1264.0713,1283.1233c-23.6625-2.3062-31.3855-2.8318-56.3244-17.7522-36.266-45.0081-59.4136-77.6593-97.2242-108.5407,0,0,1.03-22.622,11.8312-43.4527,12.861-24.96,30.86-45.0187,48.6121-60.9475,24.4348,31.3641,29.83,51.4225,41.404,92.3116C1223.6864,1184.6119,1238.6068,1227.3137,1264.0713,1283.1233Z"/></svg>