<svg id="Layer_1" data-name="Layer 1" xmlns="http://www.w3.org/2000/svg" viewBox="0 0 2000 2000"><defs><style>.cls-1{fill:#fff;}.cls-2{fill:#231f20;}</style></defs><path class="cls-1" d="M1000.0065,0C1551.34,0,2000,448.6728,2000,1000.0065,2000,1551.3531,1551.34,2000,1000.0065,2000,448.6469,2000,0,1551.3531,0,1000.0065,0,448.6728,448.6469,0,1000.0065,0Zm861.7418,1218.571a890.1124,890.1124,0,0,0,26.9395-218.59c0-122.0516-24.41-238.2147-69.0285-343.9755-25.8112,32.8281-53.0231,64.5278-83.05,94.269-14.5918,14.8641-29.7412,28.6257-44.8907,42.3744a723.7272,723.7272,0,0,1-8.1454,439.9566c4.5007.2724,8.9755.5578,13.7616.5578A939.7665,939.7665,0,0,0,1861.7483,1218.571Zm-39.0021,117.8363a1029.239,1029.239,0,0,1-125.411,7.86c-20.7656,0-41.2589-.83-61.7392-1.9585a727.6225,727.6225,0,0,1-316.7766,305.5442c3.087,3.3723,5.9016,6.7316,9.2609,10.1039A920.7714,920.7714,0,0,0,1454.62,1763.7438C1619.3311,1665.5318,1749.5152,1515.6975,1822.7462,1336.4073ZM1658.0478,671.7122a935.9727,935.9727,0,0,0,105.5014-126.2671,889.2745,889.2745,0,0,0-427.3364-368.1135,1028.8591,1028.8591,0,0,1,8.1454,125.411c0,20.7786-.8431,41.2589-1.9715,61.4409a726.2632,726.2632,0,0,1,305.2848,317.0619c3.3593-3.0869,7.004-6.1609,10.3763-9.2479ZM1610.9,999.9805a620.8208,620.8208,0,0,0-14.3063-132.13,1033.9819,1033.9819,0,0,1-459.0362,178.447l.2853.2724c126.2671,95.3974,273.8575,155.7229,430.41,177.3316A607.8362,607.8362,0,0,0,1610.9,999.9805Zm-50.7792-243.805a613.8716,613.8716,0,0,0-231.7554-271.0428,1032.642,1032.642,0,0,1-198.37,450.32h.2724C1287.12,913.5716,1434.1394,851.8454,1560.1211,756.1755Zm-316.4912,804.14a615.1828,615.1828,0,0,0,271.3153-232.0408,1029.4964,1029.4964,0,0,1-450.333-198.3826v.2983C1086.5062,1287.0289,1147.9471,1434.0616,1243.63,1560.3157Zm100.4429,259.2528a1008.6488,1008.6488,0,0,1-94.5543-83.05c-14.5918-14.5788-28.34-29.7412-42.089-44.8907A719,719,0,0,1,767.2,1683.4958c0,4.4878-.5577,9.2609-.5577,13.7486a941.3842,941.3842,0,0,0,14.8641,164.4261,889.4595,889.4595,0,0,0,562.566-42.102Zm-111.39-1503.0773c0-4.4877.5577-9.2608.5577-13.7486a940.0337,940.0337,0,0,0-14.5917-164.426A890.2941,890.2941,0,0,0,655.81,180.4186a1011.9951,1011.9951,0,0,1,94.5544,83.0366c14.5787,14.5917,28.6127,29.4688,42.089,44.9036a725.9257,725.9257,0,0,1,207.63-30.5843A717.2766,717.2766,0,0,1,1232.6829,316.4912ZM1046.3757,862.2347c95.3975-126.2671,155.7229-273.8575,177.3316-430.6958a606.8277,606.8277,0,0,0-355.7786-28.068,1032.58,1032.58,0,0,1,178.447,459.0362Zm-46.2914,748.8732a618.4338,618.4338,0,0,0,131.87-14.5918A1032.1762,1032.1762,0,0,1,953.78,1137.48l-.2724.2724c-95.41,126.267-155.7228,273.8574-177.3316,430.6958A611.1011,611.1011,0,0,0,1000.0843,1611.1079ZM935.2711,869.7964h.2724l-.3113-.2334c-21.6347-156.7476-83.3479-303.7024-178.9788-429.8917C644.578,488.479,550.309,569.8684,484.9251,671.7122A1031.6478,1031.6478,0,0,1,935.2322,869.563Zm-65.3839,194.7379h-.2853c-156.553,21.8811-303.5857,83.6074-429.84,179.0048a614.7414,614.7414,0,0,0,231.7555,271.3153A1032.342,1032.342,0,0,1,869.8872,1064.5343Zm-7.5747-110.8452v-.2724C736.0454,858.0193,588.468,797.6939,431.6167,776.0851a607.8412,607.8412,0,0,0-28.055,356.0511A1028.44,1028.44,0,0,1,862.3125,953.6891ZM681.3362,352.134c-3.3723-3.3724-6.1739-6.7317-9.5462-10.104A904.0845,904.0845,0,0,0,545.2506,236.2432,893.5842,893.5842,0,0,0,177.1241,663.58c41.5313-4.7731,83.3479-7.86,125.4239-7.86h.2854c20.48,0,40.9606.83,61.4409,1.9586A726.7763,726.7763,0,0,1,681.3362,352.134ZM663.6575,1822.6554a1031.4484,1031.4484,0,0,1-8.1324-125.411c0-20.48.8431-40.9606,1.9585-61.4408a729.2465,729.2465,0,0,1-305.2718-317.062c-3.3723,3.087-7.004,6.161-10.3764,9.2479v.2854a935.9718,935.9718,0,0,0-105.5014,126.267C334.5331,1619.24,484.3674,1749.4244,663.6575,1822.6554ZM316.582,767.11c-4.7731,0-9.2608-.2853-13.7486-.2853h-.2854A936.6773,936.6773,0,0,0,138.4074,781.416a891.6461,891.6461,0,0,0,41.8036,562.566,1057.6152,1057.6152,0,0,1,83.0626-94.269l.2854-.2853c14.3063-14.5917,29.4558-28.34,44.8776-42.089A719.1375,719.1375,0,0,1,316.582,767.11Z"/><path d="M1888.6878,999.9805a890.1124,890.1124,0,0,1-26.9395,218.59,939.7665,939.7665,0,0,1-164.4131,14.5918c-4.7861,0-9.2609-.2854-13.7616-.5578a723.7272,723.7272,0,0,0,8.1454-439.9566c15.1495-13.7487,30.2989-27.51,44.8907-42.3744,30.0265-29.7412,57.2384-61.4409,83.05-94.269C1864.2775,761.7658,1888.6878,877.9289,1888.6878,999.9805Z"/><path d="M1697.3352,1344.2674a1029.239,1029.239,0,0,0,125.411-7.86c-73.231,179.29-203.4151,329.1245-368.1265,427.3365A920.7714,920.7714,0,0,1,1328.08,1657.957c-3.3593-3.3723-6.1739-6.7316-9.2609-10.1039a727.6225,727.6225,0,0,0,316.7766-305.5442C1656.0763,1343.4373,1676.57,1344.2674,1697.3352,1344.2674Z"/><path d="M1763.5492,545.4451a935.9727,935.9727,0,0,1-105.5014,126.2671v.2853c-3.3723,3.087-7.017,6.161-10.3763,9.2479a726.2632,726.2632,0,0,0-305.2848-317.0619c1.1284-20.182,1.9715-40.6623,1.9715-61.4409a1028.8591,1028.8591,0,0,0-8.1454-125.411A889.2745,889.2745,0,0,1,1763.5492,545.4451Z"/><path d="M1596.594,867.8509a620.8208,620.8208,0,0,1,14.3063,132.13,607.8362,607.8362,0,0,1-42.6467,223.9214c-156.553-21.6087-304.1434-81.9342-430.41-177.3316l-.2853-.2724A1033.9819,1033.9819,0,0,0,1596.594,867.8509Z"/><path d="M1328.3657,485.1327a613.8716,613.8716,0,0,1,231.7554,271.0428c-125.9817,95.67-273.0014,157.3961-429.8527,179.2772h-.2724A1032.642,1032.642,0,0,0,1328.3657,485.1327Z"/><path d="M1514.9452,1328.2749A615.1828,615.1828,0,0,1,1243.63,1560.3157c-95.6828-126.2541-157.1237-273.2868-179.0177-430.1251v-.2983A1029.4964,1029.4964,0,0,0,1514.9452,1328.2749Z"/><path d="M1249.5185,1736.5189a1008.6488,1008.6488,0,0,0,94.5543,83.05,889.4595,889.4595,0,0,1-562.566,42.102,941.3842,941.3842,0,0,1-14.8641-164.4261c0-4.4877.5577-9.2608.5577-13.7486a719,719,0,0,0,440.2291,8.1324C1221.1781,1706.7777,1234.9267,1721.94,1249.5185,1736.5189Z"/><path d="M1233.2406,302.7426c0,4.4878-.5577,9.2609-.5577,13.7486a717.2766,717.2766,0,0,0-232.5986-38.7167,725.9257,725.9257,0,0,0-207.63,30.5843c-13.4763-15.4348-27.51-30.3119-42.089-44.9036A1011.9951,1011.9951,0,0,0,655.81,180.4186a890.2941,890.2941,0,0,1,562.8385-42.102A940.0337,940.0337,0,0,1,1233.2406,302.7426Z"/><path d="M1223.7073,431.5389c-21.6087,156.8383-81.9341,304.4287-177.3316,430.6958v.2724a1032.58,1032.58,0,0,0-178.447-459.0362,606.8277,606.8277,0,0,1,355.7786,28.068Z"/><path d="M1131.9546,1596.5161a618.4338,618.4338,0,0,1-131.87,14.5918,611.1011,611.1011,0,0,1-223.9084-42.66c21.6088-156.8384,81.9212-304.4288,177.3316-430.6958l.2724-.2724A1032.1762,1032.1762,0,0,0,1131.9546,1596.5161Z"/><path class="cls-2" d="M935.5435,869.7964h-.2724l-.0389-.2334Z"/><path d="M756.2534,439.6713C851.8843,565.8606,913.5975,712.8154,935.2322,869.563A1031.6478,1031.6478,0,0,0,484.9251,671.7122C550.309,569.8684,644.578,488.479,756.2534,439.6713Z"/><path d="M869.6019,1064.5343h.2853a1032.342,1032.342,0,0,0-198.37,450.32,614.7414,614.7414,0,0,1-231.7555-271.3153C566.0162,1148.1417,713.0489,1086.4154,869.6019,1064.5343Z"/><path d="M862.3125,953.4167v.2724a1028.44,1028.44,0,0,0-458.7508,178.4471,607.8412,607.8412,0,0,1,28.055-356.0511C588.468,797.6939,736.0454,858.0193,862.3125,953.4167Z"/><path d="M671.79,342.03c3.3723,3.3723,6.1739,6.7316,9.5462,10.104A726.7763,726.7763,0,0,0,364.2743,657.6782c-20.48-1.1285-40.9606-1.9586-61.4409-1.9586h-.2854c-42.076,0-83.8926,3.087-125.4239,7.86A893.5842,893.5842,0,0,1,545.2506,236.2432,904.0845,904.0845,0,0,1,671.79,342.03Z"/><path d="M655.5251,1697.2444a1031.4484,1031.4484,0,0,0,8.1324,125.411c-179.29-73.231-329.1244-203.4151-427.3235-368.1135a935.9718,935.9718,0,0,1,105.5014-126.267v-.2854c3.3724-3.0869,7.0041-6.1609,10.3764-9.2479a729.2465,729.2465,0,0,0,305.2718,317.062C656.3682,1656.2838,655.5251,1676.7641,655.5251,1697.2444Z"/><path d="M302.8334,766.8243c4.4878,0,8.9755.2853,13.7486.2853a719.1375,719.1375,0,0,0-8.1454,440.2291c-15.4218,13.7486-30.5713,27.4973-44.8776,42.089l-.2854.2853a1057.6152,1057.6152,0,0,0-83.0626,94.269,891.6461,891.6461,0,0,1-41.8036-562.566A936.6773,936.6773,0,0,1,302.548,766.8243Z"/></svg>