<?xml version="1.0" encoding="UTF-8"?>
<svg id="Layer_2" data-name="Layer 2" xmlns="http://www.w3.org/2000/svg" viewBox="0 0 443.18 514.29">
  <defs>
    <style>
      .cls-1 {
        fill: #fff;
      }
    </style>
  </defs>
  <g id="Layer_1-2" data-name="Layer 1">
    <g>
      <polygon points="0 404.88 0 131.31 225.66 0 418.56 110.75 194.25 243.47 194.25 514.29 0 404.88"/>
      <polygon points="246.16 508.73 246.16 276.28 443.18 158.67 443.18 300.92 341.94 358.37 341.94 454.11 246.16 508.73"/>
    </g>
    <polyline points="246.16 508.73 194.25 514.29 194.25 243.47 315.64 171.64 333.25 225.03"/>
    <path class="cls-1" d="M259.52,151.68c-.43-.02-.86-.02-1.3,0-1.74.07-3.46.46-4.98,1.16l-.04.02c-3.02,1.42-5.61,4.24-6.76,7.37l-46.86,127.73c-1.15,3.13-1,6.95.4,9.99l.02.04c1.41,3.04,4.23,5.65,7.37,6.8l72.84,26.73c3.15,1.16,6.99.99,10.03-.42,3.04-1.41,5.65-4.25,6.8-7.4l46.86-127.73c1.15-3.15.99-6.99-.42-10.03-1.41-3.04-4.23-5.65-7.37-6.81l-72.84-26.73c-1.21-.44-2.47-.69-3.75-.75h0ZM232.08,161.25l-59.65,2.77c-3.35.16-6.83,1.8-9.09,4.28-2.26,2.48-3.56,6.11-3.4,9.46l6.32,135.89c.16,3.35,1.8,6.83,4.28,9.09,2.48,2.26,6.09,3.58,9.44,3.42l42.14-1.95-19.27-7.07c-6.53-2.4-11.84-7.29-14.77-13.61-2.93-6.32-3.23-13.54-.83-20.08l44.84-122.2h0ZM147.1,184.6l-48.15,16c-3.18,1.06-6.09,3.59-7.59,6.58-1.5,3-1.78,6.85-.72,10.03l42.95,129.09c1.06,3.18,3.56,6.09,6.56,7.59,3,1.5,6.85,1.78,10.03.72l48.72-16.22-18.3.86c-6.95.33-13.75-2.12-18.9-6.8-5.14-4.69-8.21-11.24-8.54-18.19l-6.06-129.66h0ZM79.42,225.03l-46.66,39.88c-2.55,2.18-4.3,5.61-4.56,8.95-.26,3.34.92,7,3.09,9.55l88.4,103.46c2.18,2.55,5.59,4.28,8.93,4.54,3.34.26,7.02-.92,9.57-3.1l30.42-26.01-14.31,4.76c-6.58,2.19-13.76,1.68-19.97-1.4l-.07-.02c-6.22-3.12-10.95-8.58-13.15-15.19l-41.7-125.42h0Z"/>
  </g>
</svg>