<?xml version="1.0" encoding="UTF-8"?>
<svg id="Layer_2" data-name="Layer 2" xmlns="http://www.w3.org/2000/svg" viewBox="0 0 1070.34 1015.1">
  <g id="Layer_2-2" data-name="Layer 2">
    <g>
      <path d="M267.26,438.87l-53.21,49.28-1.67,6.42,90.64,106.47c1.83,7.74-19.81,38.74-25.56,43.52-3.15,2.62-6.04,4.52-9.89,1.92l-157.09-217.43c7.55-8.99,31.64-21.25,30.92-34.32s-40.43-53.69-47.75-68.33c-1.15-2.31-3.06-4.46-1.7-7.31l82.93-4.12c7-3.91.17-33.03,1.68-41.32l7.64-9.36,186.65.91c3.16,1.93,4.31,4.91,4.65,8.42.8,8.16.24,48.23-.96,56.02-.63,4.07-2,6.3-5.08,8.92l-162.5,6.5c-4.88.18-9.84,5.89-9.44,10.46l69.75,83.36Z"/>
      <path d="M622.47,240.07c26.55-52.67,21.01-125.68-39.15-151.35-102.93-43.91-201.3,49.86-143.85,151.35h-53C298.9,86.85,476.12-54.19,620.34,20.7c83.86,43.55,94.93,139.56,56.63,219.37h-54.5Z"/>
      <path d="M843.87,488.66c-7.99-8.56-35.9-27.59-33.98-38.62l74.57-96.58-5.71-9.16h-175.01s-3.06-2.93-3.06-2.93c-.58-18.01-2.51-36.72-2.25-54.75.11-7.54-1.92-17.12,5.08-22.02l175.26-.33c10.63,3.59.81,50.87,14.33,56.67,15.1,6.31,59.68-3.22,77.92.08,2.44.44,3.56,1.05,5.01,3.09,1.99,5.88-47.1,54.76-48.5,63.53-2.48,15.46,35.52,25.44,29.69,41.69l-109.84,153.15c-4.23,1.96-54.51,2.78-60.46,1.64-2.04-.39-3.38-.59-4.39-2.67l69.02-76.79c3.49-9.56-2.78-10.75-7.68-15.99Z"/>
      <path d="M492.99,115.58c29.87-13.61,79.63-10.12,101.44,17.03,21.87,27.22,15.84,81.08-7.41,106.51-32.18-1.53-71.75,5.48-103.09,1.99-20.57-2.29-30.77-40.98-31.49-58.51-1.24-30.34,12.93-54.43,40.56-67.02Z"/>
      <path d="M626.9,452.65c-78.92-57.23-125.79-62.82-201.92,6.47-16.26,14.8-20.5,30.5-45.98,32.98-22.45,2.18-48.86-3.22-72.03-.03-7.33-6.98-3.85-15.38.15-23.1,29.58-7.56,57.93-9.03,85.57-22.88,66.53-33.35,83.27-67.75,171.15-57.89,68.66,7.7,93.32,55.96,150.39,66.61,10.27,1.92,58.95,2.1,58.31,18.79l-5.61,6.44c-30.75-2.1-65.64,4.35-95.94,1-15.13-1.67-31.36-19.15-44.1-28.39Z"/>
      <path d="M632.2,881.33l.55,4.43c-6.62,8.51-12.63,17.45-18.85,26.24-15.32,21.64-55.88,84.47-71.99,99.01-4.72,4.26-6.85,5.69-12.79,1.91l-89.52-125.37,2.55-4.31,190.05-1.91Z"/>
      <path d="M432.84,716.7c.89,1.14,3.39,1.72,4.15,3.39l-.04,3.92c-15.43,26.3-63.04,41.92-42.29,79.37,15.73,28.39,54.36,20.19,75.73,3.12,20.05-16.01,19.3-42.33,45.04-6.89-.72,8.87,5.41,44.68-3.38,48.55l-101.14-.03-109.72-152.35.45-5.54c2.83.04,5.58-.85,8.35-1.14,17.28-1.82,73.47-4.38,88.87-1.93,8.69,1.38,28.16,22.06,33.96,29.54Z"/>
      <path d="M669.92,547.5c-10.39,9.27-17.36,21.81-28.44,32.08-65.41,60.59-154.59,48.14-220.92-3.09-11.83-9.14-28.84-28.96-41.11-33.89-24.54-9.85-53.63,3.85-78.34-9.42l5.01-17.16c21.27,3.24,59.3-4.64,78.64,1.27,9.04,2.76,26.22,26.41,35.71,34.29,59.24,49.16,141.3,54.13,201.47,4.45,12.38-10.22,41.57-45.35,53.25-48.75,22.83-6.63,64.06,3.24,88.77-2.2,11.49,8.42,4.46,23.31-8.24,25.74-34.61,6.61-53.22-12.38-85.8,16.69Z"/>
      <path d="M463.46,376.08l-40.52,21.95c-31.28,31.34-68.1,38.67-109.95,46.07l-2.51-1.52c5.2-4.94,7.85-6.87,3.98-14.02-4.18-7.73-49.35-45.91-49.04-50.01.57-7.51,122.88-.56,133.56-7.48,6.17-6.33,2.87-35.05,3.44-44.48.76-12.35,1.51-46.48,4.12-55.95.55-2.01,1.24-3.85,2.42-5.58l41-1c1.8.27,3.39,2.56,3.94,4.06,5.93,16.3-2.99,74.28.67,96.35.85,5.11,3.08,10.77,8.89,11.61Z"/>
      <path d="M819.22,376.31c1.98,2.78,1.03,4.12-.29,6.7-1.54,2.99-38.2,45.94-41.43,48.58-14.46,11.8-19.7,2.92-34.68,1.53-20.49-1.91-35.55-.64-55.88-12.03-23.74-13.3-44.81-39.16-74.47-44.03,4.64-5.05,12.3-6.34,13.94-14.55,4.39-21.91-2.23-62.08-.99-85.98.18-3.39.77-6.59,2.01-9.74,2.82-4.01,37.9-4.97,39.81,1l2.77,103.23,4.71,4.29,144.49,1Z"/>
      <path d="M520.23,434.33c101.4-11.39,103.47,144.28-1.13,132.6-74.77-8.35-74.49-124.11,1.13-132.6ZM529.24,467.37c-46.42,1.11-44.01,72.77,4.7,68.67,41.59-3.5,39.44-69.72-4.7-68.67Z"/>
      <path d="M679.08,767.67c41.46-21.22,27.69-77.16-11.64-67.14-13.07,3.33-28.37,23.53-14.92,33.98,16.66,8.74,15.91-17.75,26.24-11.5,11.05,26.39-29.48,39.04-40.76,12.03-17.7-58.19,71.89-66.55,85.18-15.18,24.22,93.61-112.63,119.29-149.73,12.73-5.97-17.15-17.86-77.14-5.02-90.08,3.84-3.33,17.5-9.09,20.52-2.42,1.08,31.35-2.26,59.53,12.72,88.28,14.29,27.43,45.05,55.86,77.42,39.29Z"/>
      <path d="M613.47,637.57c-.13-1.74-5.28-7.06-2.02-10,20.58-9.43,39.3-22.86,55.06-38.93,9.84-10.02,15.2-23.56,28.63-30.38,20.92-10.61,47.28,2.35,69.29-5.69,1.18,3.34-44.96,45.09-46.76,53.23-2.32,10.5,22.62,32.68,25.25,42.33.64,2.35,1.24,4.12-.91,6.01-1.94,2.07-9.88,2.5-13.08,2.91-19.9,2.57-84.62.05-97.42,7.58-5.77,3.39-11.78,13.97-18.05,17.45-.82-14.49,1.11-30.15,0-44.5Z"/>
      <path d="M446.46,682.06l-31.73-26.76-95.36.36-1.88-3.12,34.95-55.06-29.97-34.4c12.06,1.38,27.15-1.89,38.54-1.06,13.55.99,46.5,34.98,61.13,44.87,11.02,7.45,22.43,14.24,34.87,19.14-10.25,16.93-8.48,36.93-10.55,56.03Z"/>
      <path d="M591.15,336.75l-10.15,3.34-88.9-.15c-2.99-1.98-4.02-3.84-4.64-7.36-.98-5.54-.67-63.21.94-66.09,2.27-2.8,5.26-3.04,8.54-3.46,14.95-1.92,70.34-2.05,85.07,0,6.92.96,9.43,2.08,10.51,9.49.89,6.09.48,61.61-1.37,64.23Z"/>
      <path d="M2.18,264.28l142.86-.28,9.47,8.53-.1,14.97c-.17,2.82-3.24,5.66-5.7,6.3-23.32,6.14-66.14-2.7-89.78,2.22-2.88.6-5.97,2.87-6.29,5.78-.65,5.82,55.31,77.01,61.27,88.34,3.16,8.73-12.9,20.91-19.84,12.84L0,272.04l2.18-7.76Z"/>
      <path d="M982.93,368.52c6.68-9.51,51.36-63.83,52.12-68.43.23-1.36.19-2.24-.68-3.37-2.08-3.37-17.24-3.4-22.37-3.69-29.81-1.66-59.99,0-89.81-2.19-7.36-2.09-7.74-22.46-3.77-25.34l151.61-.5.31,6.43-87.87,122.13c-5.31,5.86-12.06,2.37-12.09-5-.02-5.19,9.17-15.23,12.55-20.05Z"/>
      <path d="M459.96,783.53c-10.71,10.68-26.43,19.56-41.42,11.97l-5.06-10.84c13.57-20.79,38.66-33.27,48.86-57.22,8.34-19.57,6.67-79.88,15.13-87.87,7.16-6.77,20.18.02,21.92,9.07,2.01,10.44-2.31,45.76-4.25,57.6-4.38,26.79-15.79,57.94-35.19,77.28Z"/>
      <path d="M571.16,780.39c3.18,1.95,15.38,17.77,21.83,22.65,16.96,12.82,35.23,18.03,56.12,20.88,4.59.63,25.05-2.45,23.97,5.16-4.97,7.78-9.43,17.36-19.19,19.91l-99.4-.45c-2.11-1.54-3.43-3.45-3.96-6.04-.97-4.75-1.53-37.65-.44-42.31,1.26-5.4,15.04-23.49,21.07-19.8Z"/>
      <path d="M541.47,643.07c-5.87,34.86.3,69.72,12,102.46-16.62,24.05-27.99,21.65-43.97-.94,11.71-32.75,11.47-68.25,7.96-102.53l24.01,1.01Z"/>
      <path d="M819.17,617.38l1.83,5.62-29.13,37.06-6.38-2.5c-3.45-7.83-27.6-31.85-23.07-39.06l56.76-1.12Z"/>
      <polygon points="746.48 725.06 730.48 688.07 767.24 687.81 769.96 695 746.48 725.06"/>
      <path d="M281.47,474.07v16.5c0,2.78,5.07,10.82,4.98,13.92-.11,3.54-6.39,10.75-6.03,15.55l-22.86-22.32,23.92-23.65Z"/>
      <path d="M808.15,497.36c4.58,7.88-11.92,21.93-13.69,21.27l-5.94-21.16,7.23-11.28c1.86,2.73,11.37,9.41,12.4,11.18Z"/>
    </g>
  </g>
</svg>